<?xml version="1.0" encoding="UTF-8" standalone="no"?>
<svg
    xmlns:inkscape="http://www.inkscape.org/namespaces/inkscape"
    xmlns:sodipodi="http://sodipodi.sourceforge.net/DTD/sodipodi-0.dtd"
    xmlns:xlink="http://www.w3.org/1999/xlink"
    width="256px"
    height="256px"
    viewBox="0 0 256 256"
    version="1.1"
    id="svg2"
    sodipodi:docname="Generic_Feed-icon.svg"
    inkscape:version="1.3 (0e150ed6c4, 2023-07-21)"
    xmlns="http://www.w3.org/2000/svg"
>
    <sodipodi:namedview
        id="namedview2"
        pagecolor="#ffffff"
        bordercolor="#000000"
        borderopacity="0.25"
        inkscape:showpageshadow="2"
        inkscape:pageopacity="0.0"
        inkscape:pagecheckerboard="0"
        inkscape:deskcolor="#d1d1d1"
        inkscape:zoom="1.96875"
        inkscape:cx="127.74603"
        inkscape:cy="128"
        inkscape:window-width="1366"
        inkscape:window-height="708"
        inkscape:window-x="0"
        inkscape:window-y="0"
        inkscape:window-maximized="1"
        inkscape:current-layer="svg2"/>
    <defs
        id="defs2">
        <linearGradient
            gradientUnits="objectBoundingBox"
            x1="0.5"
            y1="0"
            x2="0.5"
            y2="1"
            id="gradient_1">
            <stop
                offset="0"
                stop-color="#F84100"
                id="stop1"/>
            <stop
                offset="1"
                stop-color="#F9D213"
                id="stop2"/>
        </linearGradient>
        <path
            d="M256 0L256 0L256 256L0 256L0 0L256 0Z"
            id="path_1"/>
        <clipPath
            id="clip_1">
            <use
                xlink:href="#path_1"
                clip-rule="evenodd"
                fill-rule="evenodd"
                id="use2"/>
        </clipPath>
        <clipPath
            id="clip_1-3">
            <use
                xlink:href="#path_1"
                clip-rule="evenodd"
                fill-rule="evenodd"
                id="use2-6"/>
        </clipPath>
    </defs>
    <g
        id="g2"
        clip-path="url(#clip_1)">
        <path
            d="M256 0L256 0L256 256L0 256L0 0L256 0Z"
            id="Generic_Feed-icon"
            fill="none"
            stroke="none"/>
        <path
            d="M0 96L0 48C0 34.7452 4.68629 23.4315 14.0589 14.0589C23.4315 4.68629 34.7452 0 48 0L208 0C221.255 0 232.569 4.68629 241.941 14.0589C251.314 23.4315 256 34.7452 256 48L256 208C256 221.255 251.314 232.569 241.941 241.941C232.569 251.314 221.255 256 208 256L48 256C34.7452 256 23.4315 251.314 14.0589 241.941C4.68629 232.569 0 221.255 0 208L0 96Z"
            id="Line"
            fill="url(#gradient_1)"
            fill-rule="evenodd"
            stroke="none"/>
        <path
            d="M32 192C32 174.327 46.3269 160 64 160C81.6731 160 96 174.327 96 192C96 209.673 81.6731 224 64 224C46.3269 224 32 209.673 32 192Z"
            id="Circle"
            fill="#FFFFFF"
            fill-rule="evenodd"
            stroke="none"/>
        <path
            d="M32 128C85.0193 128 128 170.981 128 224L160 224C160 153.308 102.692 96 32 96L32 128Z"
            id="Shape"
            fill="#FFFFFF"
            stroke="none"/>
        <path
            d="M32 64C120.366 64 192 135.634 192 224L224 224C224 117.961 138.039 32 32 32L32 64Z"
            id="path2"
            fill="#FFFFFF"
            stroke="none"/>
    </g>
</svg>
